REM DATE 2014
REM DISCID 360B6B05
REM COMMENT "ExactAudioCopy v1.0b3"
PERFORMER "Scott Walker + Sunn O)))"
TITLE "Soused"
FILE "01 Brando.wav" WAVE
  TRACK 01 AUDIO
    TITLE "Brando"
    PERFORMER "Scott Walker + Sunn O)))"
    INDEX 01 00:00:00
  TRACK 02 AUDIO
    TITLE "Herod 2014"
    PERFORMER "Scott Walker + Sunn O)))"
    INDEX 00 08:43:49
FILE "02 Herod 2014.wav" WAVE
    INDEX 01 00:00:00
  TRACK 03 AUDIO
    TITLE "Bull"
    PERFORMER "Scott Walker + Sunn O)))"
    INDEX 00 11:59:31
FILE "03 Bull.wav" WAVE
    INDEX 01 00:00:00
  TRACK 04 AUDIO
    TITLE "Fetish"
    PERFORMER "Scott Walker + Sunn O)))"
    INDEX 00 09:21:50
FILE "04 Fetish.wav" WAVE
    INDEX 01 00:00:00
  TRACK 05 AUDIO
    TITLE "Lullaby"
    PERFORMER "Scott Walker + Sunn O)))"
    INDEX 00 09:08:70
FILE "05 Lullaby.wav" WAVE
    INDEX 01 00:00:00
